<svg width="52" height="52" viewBox="0 0 52 52" fill="none" xmlns="http://www.w3.org/2000/svg">
<g clip-path="url(#clip0_1067_46)">
<circle cx="26" cy="26" r="25" fill="#E5F6FE" stroke="#CAE6FC" stroke-width="2"/>
<path d="M22.375 28.625C22.1031 28.625 21.8372 28.7056 21.6111 28.8567C21.385 29.0078 21.2087 29.2226 21.1047 29.4738C21.0006 29.7251 20.9734 30.0015 21.0264 30.2683C21.0795 30.535 21.2104 30.78 21.4027 30.9723C21.595 31.1646 21.84 31.2955 22.1068 31.3486C22.3735 31.4016 22.6499 31.3744 22.9012 31.2703C23.1524 31.1663 23.3672 30.99 23.5183 30.7639C23.6694 30.5378 23.75 30.2719 23.75 30C23.75 29.6353 23.6051 29.2856 23.3473 29.0277C23.0894 28.7699 22.7397 28.625 22.375 28.625ZM12.75 27.25C12.3853 27.25 12.0356 27.3949 11.7777 27.6527C11.5199 27.9106 11.375 28.2603 11.375 28.625V31.375C11.375 31.7397 11.5199 32.0894 11.7777 32.3473C12.0356 32.6051 12.3853 32.75 12.75 32.75C13.1147 32.75 13.4644 32.6051 13.7223 32.3473C13.9801 32.0894 14.125 31.7397 14.125 31.375V28.625C14.125 28.2603 13.9801 27.9106 13.7223 27.6527C13.4644 27.3949 13.1147 27.25 12.75 27.25ZM40.25 27.25C39.8853 27.25 39.5356 27.3949 39.2777 27.6527C39.0199 27.9106 38.875 28.2603 38.875 28.625V31.375C38.875 31.7397 39.0199 32.0894 39.2777 32.3473C39.5356 32.6051 39.8853 32.75 40.25 32.75C40.6147 32.75 40.9644 32.6051 41.2223 32.3473C41.4801 32.0894 41.625 31.7397 41.625 31.375V28.625C41.625 28.2603 41.4801 27.9106 41.2223 27.6527C40.9644 27.3949 40.6147 27.25 40.25 27.25ZM33.375 17.625H27.875V15.865C28.2906 15.625 28.6362 15.2805 28.8774 14.8656C29.1187 14.4507 29.2471 13.9799 29.25 13.5C29.25 12.7707 28.9603 12.0712 28.4445 11.5555C27.9288 11.0397 27.2293 10.75 26.5 10.75C25.7707 10.75 25.0712 11.0397 24.5555 11.5555C24.0397 12.0712 23.75 12.7707 23.75 13.5C23.7529 13.9799 23.8813 14.4507 24.1226 14.8656C24.3638 15.2805 24.7094 15.625 25.125 15.865V17.625H19.625C18.531 17.625 17.4818 18.0596 16.7082 18.8332C15.9346 19.6068 15.5 20.656 15.5 21.75V34.125C15.5 35.219 15.9346 36.2682 16.7082 37.0418C17.4818 37.8154 18.531 38.25 19.625 38.25H33.375C34.469 38.25 35.5182 37.8154 36.2918 37.0418C37.0654 36.2682 37.5 35.219 37.5 34.125V21.75C37.5 20.656 37.0654 19.6068 36.2918 18.8332C35.5182 18.0596 34.469 17.625 33.375 17.625ZM28.865 20.375L28.1775 23.125H24.8225L24.135 20.375H28.865ZM34.75 34.125C34.75 34.4897 34.6051 34.8394 34.3473 35.0973C34.0894 35.3551 33.7397 35.5 33.375 35.5H19.625C19.2603 35.5 18.9106 35.3551 18.6527 35.0973C18.3949 34.8394 18.25 34.4897 18.25 34.125V21.75C18.25 21.3853 18.3949 21.0356 18.6527 20.7777C18.9106 20.5199 19.2603 20.375 19.625 20.375H21.3025L22.375 24.83C22.4503 25.1351 22.6278 25.4052 22.878 25.5953C23.1281 25.7854 23.4359 25.8842 23.75 25.875H29.25C29.5641 25.8842 29.8719 25.7854 30.122 25.5953C30.3722 25.4052 30.5497 25.1351 30.625 24.83L31.6975 20.375H33.375C33.7397 20.375 34.0894 20.5199 34.3473 20.7777C34.6051 21.0356 34.75 21.3853 34.75 21.75V34.125ZM30.625 28.625C30.3531 28.625 30.0872 28.7056 29.8611 28.8567C29.635 29.0078 29.4587 29.2226 29.3547 29.4738C29.2506 29.7251 29.2234 30.0015 29.2764 30.2683C29.3295 30.535 29.4604 30.78 29.6527 30.9723C29.845 31.1646 30.09 31.2955 30.3568 31.3486C30.6235 31.4016 30.8999 31.3744 31.1512 31.2703C31.4024 31.1663 31.6172 30.99 31.7683 30.7639C31.9194 30.5378 32 30.2719 32 30C32 29.6353 31.8551 29.2856 31.5973 29.0277C31.3394 28.7699 30.9897 28.625 30.625 28.625Z" fill="#2753B1"/>
</g>
<defs>
<clipPath id="clip0_1067_46">
<rect width="52" height="52" fill="white"/>
</clipPath>
</defs>
</svg>
